<svg width="20" height="15" viewBox="0 0 20 15" fill="none" xmlns="http://www.w3.org/2000/svg">
<path d="M19.1539 12.6923V1.92303C19.1539 1.37075 18.7062 0.923035 18.1539 0.923035H1.84619C1.29391 0.923035 0.846191 1.37075 0.846191 1.92303V12.6923C0.846191 13.4145 1.43167 14 2.15389 14H17.8462C18.5684 14 19.1539 13.4145 19.1539 12.6923Z" fill="#3D4FF4"/>
<path d="M18.4039 1.92303V12.6923H19.9039V1.92303H18.4039ZM17.8462 13.25H2.15389V14.75H17.8462V13.25ZM1.59619 12.6923V1.92303H0.0961914V12.6923H1.59619ZM2.15389 13.25C1.84588 13.25 1.59619 13.0003 1.59619 12.6923H0.0961914C0.0961914 13.8287 1.01745 14.75 2.15389 14.75V13.25ZM18.4039 12.6923C18.4039 13.0003 18.1542 13.25 17.8462 13.25V14.75C18.9827 14.75 19.9039 13.8287 19.9039 12.6923H18.4039ZM1.84619 1.67303H18.1539V0.173035H1.84619V1.67303ZM1.59619 1.92303C1.59619 1.78496 1.70812 1.67303 1.84619 1.67303V0.173035C0.879693 0.173035 0.0961914 0.956536 0.0961914 1.92303H1.59619ZM19.9039 1.92303C19.9039 0.956536 19.1204 0.173035 18.1539 0.173035V1.67303C18.292 1.67303 18.4039 1.78496 18.4039 1.92303H19.9039Z" fill="#3D4FF4"/>
</svg>
