<svg width="17" height="18" viewBox="0 0 17 18" fill="none" xmlns="http://www.w3.org/2000/svg">
<path d="M2.61572 14.7196L14.9886 13.181C15.7376 13.0879 16.0806 12.1975 15.5876 11.6259L14.512 10.3788C14.4292 10.2829 14.3707 10.1686 14.3413 10.0454L13.4443 6.28834C12.7832 3.51965 10.1461 1.69078 7.32133 2.04204C4.49658 2.3933 2.38767 4.81235 2.42484 7.65861L2.47528 11.5209C2.47693 11.6476 2.4482 11.7728 2.39149 11.886L1.65404 13.3585C1.31603 14.0335 1.86664 14.8128 2.61572 14.7196Z" fill="white"/>
<path d="M7.32133 2.04204C10.1461 1.69078 12.7832 3.51965 13.4443 6.28834L14.3413 10.0454C14.3707 10.1686 14.4292 10.2829 14.512 10.3788L15.5876 11.6259C16.0806 12.1975 15.7376 13.0879 14.9886 13.181L2.61572 14.7196C1.86664 14.8128 1.31603 14.0335 1.65404 13.3585L2.39149 11.886C2.4482 11.7728 2.47693 11.6476 2.47528 11.5209L2.42484 7.65861C2.38767 4.81235 4.49658 2.3933 7.32133 2.04204ZM7.32133 2.04204L7.19793 1.04968M8.83597 14.7235C8.99435 15.8167 8.23658 16.8313 7.14342 16.9897C6.05027 17.1481 5.03569 16.3903 4.8773 15.2971" stroke="white" stroke-width="1.5" stroke-linecap="round" stroke-linejoin="round"/>
</svg>
